<svg width="24" height="24" viewBox="0 0 24 24" fill="none" xmlns="http://www.w3.org/2000/svg">
    <rect x="2" y="2" width="20" height="20" rx="3.75" fill="#0D6DFD"/>
    <g filter="url(#filter0_d_74_56)">
        <path d="M5.35938 6.31135C5.35938 5.78559 5.78559 5.35938 6.31135 5.35938H8.2153C8.74106 5.35938 9.16728 5.78559 9.16728 6.31135V8.2153C9.16728 8.74106 8.74106 9.16728 8.2153 9.16728H6.31135C5.78559 9.16728 5.35938 8.74106 5.35938 8.2153V6.31135Z" fill="white" shape-rendering="crispEdges"/>
        <path d="M10.1048 6.31135C10.1048 5.78559 10.531 5.35938 11.0568 5.35938H12.9607C13.4865 5.35938 13.9127 5.78559 13.9127 6.31135V8.2153C13.9127 8.74106 13.4865 9.16728 12.9607 9.16728H11.0568C10.531 9.16728 10.1048 8.74106 10.1048 8.2153V6.31135Z" fill="white" fill-opacity="0.5" shape-rendering="crispEdges"/>
        <path d="M14.8502 6.31135C14.8502 5.78559 15.2764 5.35938 15.8022 5.35938H17.7061C18.2319 5.35938 18.6581 5.78559 18.6581 6.31135V8.2153C18.6581 8.74106 18.2319 9.16728 17.7061 9.16728H15.8022C15.2764 9.16728 14.8502 8.74106 14.8502 8.2153V6.31135Z" fill="white" shape-rendering="crispEdges"/>
        <path d="M14.8502 11.0568C14.8502 10.531 15.2764 10.1048 15.8022 10.1048H17.7061C18.2319 10.1048 18.6581 10.531 18.6581 11.0568V12.9607C18.6581 13.4865 18.2319 13.9127 17.7061 13.9127H15.8022C15.2764 13.9127 14.8502 13.4865 14.8502 12.9607V11.0568Z" fill="white" fill-opacity="0.5" shape-rendering="crispEdges"/>
    </g>
    <defs>
        <filter id="filter0_d_74_56" x="5.29591" y="5.32764" width="13.4258" height="8.68015" filterUnits="userSpaceOnUse" color-interpolation-filters="sRGB">
            <feFlood flood-opacity="0" result="BackgroundImageFix"/>
            <feColorMatrix in="SourceAlpha" type="matrix" values="0 0 0 0 0 0 0 0 0 0 0 0 0 0 0 0 0 0 127 0" result="hardAlpha"/>
            <feOffset dy="0.0317325"/>
            <feGaussianBlur stdDeviation="0.0317325"/>
            <feComposite in2="hardAlpha" operator="out"/>
            <feColorMatrix type="matrix" values="0 0 0 0 0 0 0 0 0 0 0 0 0 0 0 0 0 0 0.05 0"/>
            <feBlend mode="normal" in2="BackgroundImageFix" result="effect1_dropShadow_74_56"/>
            <feBlend mode="normal" in="SourceGraphic" in2="effect1_dropShadow_74_56" result="shape"/>
        </filter>
    </defs>
</svg>
